<svg height="512" viewBox="0 0 64 64" width="512" xmlns="http://www.w3.org/2000/svg"><g id="Bag"><path d="m5 39v18a4 4 0 0 0 4 4h46a4 4 0 0 0 4-4v-18z" fill="#005ece"/><path d="m57 15h-50a4 4 0 0 0 -4 4v20h58v-20a4 4 0 0 0 -4-4z" fill="#57a4ff"/><path d="m44 5a2 2 0 0 0 -2-2h-20a2 2 0 0 0 -2 2v2h24z" fill="#005ece"/><path d="m5 39h54v3h-54z" fill="#004fac"/><circle cx="32" cy="39" fill="#ed1c24" r="5"/><path d="m33 40v-2a1 1 0 0 0 -2 0v2a1 1 0 0 0 2 0z" fill="#f1f2f2"/><g fill="#6d6e71"><path d="m42 7h2v8h-2z"/><path d="m20 7h2v8h-2z"/></g></g></svg>